<svg id="Layer_1" data-name="Layer 1" xmlns="http://www.w3.org/2000/svg" viewBox="0 0 1000 1000"><defs><style>.cls-1{fill:#2b54b0;}</style></defs><path class="cls-1" d="M500,288.06c0-10.47-.42-21,.16-31.41.35-6.43-1.36-9.52-7.81-11.89-31-11.42-45.21-43.62-33.55-74.37,14.89-39.27,70.42-48.68,97.41-16.5,26.56,31.68,14.8,76.83-24,91.1-5.55,2-7.11,4.66-6.79,10.26,2.55,44.31,4.83,88.64,7.22,133,.55,10.21.93,20.43,1.87,30.6,1.22,13.1,6.22,23.33,20.62,26.7,17,4,32.15,12.2,46.31,22.07,9.17,6.39,18.13,6.85,27.17,1,19-12.34,38-24.73,56.58-37.73,18-12.58,35.32-26.05,53.1-38.9,4.27-3.09,5.32-5.84,3.63-11.22-7.17-22.77-2.09-43.57,14.92-59.74,17.53-16.65,38.94-21.84,62.24-12.51,26.8,10.72,42.46,37.41,36.81,63.83C849.58,401.66,831,417.7,799.2,420.9c-13,1.31-25-3.79-35.82-11-2.82-1.87-4.85-3.49-8.31-.32-31.64,29-63.48,57.7-95.23,86.54-2.21,2-4.16,4.3-6.18,6.5-7.08,7.74-8.75,16.15-4.63,26.17a126,126,0,0,1,9.38,58.56,203.33,203.33,0,0,1-8.54,43.71c-5.54,17.67-5.3,24.28,9.42,35.91,25.43,20.1,51.72,39.11,76.93,59.47,9.51,7.68,15.56,7.94,26.42.94,26.67-17.21,55.3-16.31,81.73,1.05,24.82,16.31,34.37,40.59,32,70.34-2.61,32.41-28.69,58.12-56.71,63.78-37.32,7.53-69.17-8.31-84.55-39.59-9.38-19.07-8.88-38.56-3.62-58.28,1.32-5,.94-7.77-3.6-10.38-21.38-12.3-42.52-25-64-37.17-11.9-6.72-24.13-12.94-36.54-18.68s-23.57-4.49-35.61,3.67c-34.2,23.17-72.44,28.79-112.29,19.76-14.6-3.31-28.66-10-42.2-16.67-11.79-5.83-22.75-6-33.23,1-14.54,9.62-28.51,20.1-42.56,30.44-16.86,12.42-33.5,25.15-50.34,37.61-4.42,3.27-5.49,6.4-3.26,12C320.6,818.08,301.27,854,269.5,863c-35.21,10-69.17-10-76.16-44.41-7.66-37.75,25.35-74.12,63.66-69.32,9.39,1.18,18.58,5,27.5,8.56,3.9,1.55,6.34,1.62,9.21-1.24,26.63-26.61,53.57-52.93,79.84-79.88,9.57-9.82,11.86-21.58,5.72-35-13.83-30.3-16.69-62-8-94.17,3.38-12.58-.48-21.74-10-28.8-13.18-9.81-26.8-19.07-40.57-28-15.44-10.09-31.32-19.5-46.85-29.46-3.75-2.41-6.29-2.32-9.88.47C242,478.71,217,485.1,190,479.19c-29.56-6.47-50.52-24.88-61-53.2-14.1-37.87-1.31-78.36,32-101.25,48-33,119.89-10.49,134,53.8a80,80,0,0,1-4.78,49.08c-2.46,5.81-.78,8.57,4.44,11,27.7,13.1,55.29,26.41,83,39.56,2.69,1.28,5.66,1.93,8.45,3,11.78,4.52,21.61,3,31.3-6.28,14.77-14.14,32.5-24.31,52.52-28.9,15.69-3.59,20.82-14.33,21.9-28,1.95-24.85,3.1-49.77,4.48-74.66,1-18.43,1.89-36.86,2.82-55.29Zm13.92,349.8c31.43-.25,55.88-25,55.5-56.22-.38-30.26-26.74-55.41-57.51-54.85-30.32.55-55.38,25.83-55.05,55.51C457.22,613.87,482.11,638.1,513.92,637.86Z"/></svg>