<?xml version="1.0" encoding="UTF-8"?>
<svg version="1.1" xmlns="http://www.w3.org/2000/svg" width="1000" height="1000">
<path d="M0 0 C1.78589028 1.7130842 2.65918624 3.3014443 3.62890625 5.5625 C4.28890625 5.5625 4.94890625 5.5625 5.62890625 5.5625 C6.77720602 7.832116 7.92262603 10.10310778 9.06640625 12.375 C9.55463867 13.33889648 9.55463867 13.33889648 10.05273438 14.32226562 C14.44167424 23.05489856 15.18846035 32.46415393 12.7578125 41.96875 C8.0280484 54.00251047 0.19923491 61.51561423 -10.37109375 68.5625 C-12.69497322 68.95637788 -15.02903124 69.29736085 -17.37109375 69.5625 C-16.31730509 87.74618574 -15.25209383 105.92915302 -14.16868591 124.11109924 C-13.681532 132.29211298 -13.20242965 140.47348603 -12.73576355 148.65570068 C-12.49208774 152.8875404 -12.23851571 157.11873794 -11.9815979 161.34979248 C-11.86722838 163.26706064 -11.75710774 165.18458749 -11.65145874 167.10235596 C-11.50553981 169.73962982 -11.34449425 172.3755675 -11.1796875 175.01171875 C-11.14224426 175.7556337 -11.10480103 176.49954865 -11.06622314 177.26600647 C-10.63271918 183.74310664 -9.68229525 190.50660564 -4.68359375 194.953125 C-0.97334022 196.75574818 2.70134678 198.07939251 6.62890625 199.3125 C15.01408895 202.09631867 22.08187271 206.00121298 29.62890625 210.5625 C37.62425246 215.00345464 37.62425246 215.00345464 46.50390625 214.75 C55.64435675 211.39197617 63.65353592 204.74509795 71.45703125 199.05078125 C72.265354 198.46151855 73.07367676 197.87225586 73.90649414 197.26513672 C75.48908533 196.10597004 77.06659318 194.93982467 78.63842773 193.76611328 C79.36102783 193.23356934 80.08362793 192.70102539 80.828125 192.15234375 C81.46580811 191.67659912 82.10349121 191.20085449 82.76049805 190.71069336 C84.71792201 189.50779712 86.38392468 188.99321055 88.62890625 188.5625 C88.62890625 187.9025 88.62890625 187.2425 88.62890625 186.5625 C89.53640625 186.088125 90.44390625 185.61375 91.37890625 185.125 C96.5125109 182.18419255 101.11336262 178.53636866 105.80615234 174.94970703 C109.31496899 172.2793218 112.8492964 169.64279881 116.37890625 167 C117.76962514 165.95715645 119.16025799 164.91419814 120.55078125 163.87109375 C121.5665625 163.10925781 122.58234375 162.34742188 123.62890625 161.5625 C122.98305949 156.78312322 122.98305949 156.78312322 122.05078125 152.0546875 C120.70727327 144.11803853 121.87450776 135.63809716 125.62890625 128.5625 C126.20234724 127.25474317 126.76496577 125.94218484 127.31640625 124.625 C127.74953125 123.614375 128.18265625 122.60375 128.62890625 121.5625 C129.28890625 121.5625 129.94890625 121.5625 130.62890625 121.5625 C130.89703125 120.758125 131.16515625 119.95375 131.44140625 119.125 C131.83328125 118.279375 132.22515625 117.43375 132.62890625 116.5625 C134.11390625 116.0675 134.11390625 116.0675 135.62890625 115.5625 C135.62890625 114.9025 135.62890625 114.2425 135.62890625 113.5625 C137.3515625 112.16015625 137.3515625 112.16015625 139.69140625 110.625 C140.44550781 110.12097656 141.19960938 109.61695313 141.9765625 109.09765625 C149.68006792 104.63892631 155.20067978 104.16979921 164.06640625 104.375 C165.17951172 104.38853516 166.29261719 104.40207031 167.43945312 104.41601562 C170.16977837 104.45117003 172.89908369 104.50037894 175.62890625 104.5625 C175.62890625 105.2225 175.62890625 105.8825 175.62890625 106.5625 C177.57796875 106.8409375 177.57796875 106.8409375 179.56640625 107.125 C187.61981856 108.97083705 192.86046549 113.99678696 197.44140625 120.6875 C203.32786406 130.66709941 206.48657476 141.35696958 203.8984375 152.7890625 C202.03555578 159.4041935 199.70196652 165.03003703 195.62890625 170.5625 C195.07203125 171.408125 194.51515625 172.25375 193.94140625 173.125 C185.95976279 181.53808365 175.84871551 186.27260912 164.1953125 186.68359375 C156.27279425 186.24500911 147.80435101 185.124192 141.31640625 180.25 C140.42953125 179.693125 139.54265625 179.13625 138.62890625 178.5625 C134.66500567 179.65241047 132.12094257 181.62000881 129.12890625 184.375 C128.35160156 185.08785156 127.57429688 185.80070313 126.7734375 186.53515625 C123.6334929 189.50351918 120.5900694 192.54126415 117.62890625 195.6875 C115.62890625 197.5625 115.62890625 197.5625 113.31640625 198.875 C110.24358173 200.80444796 108.03654555 203.06882674 105.5234375 205.6640625 C102.96557858 208.22719536 100.2344404 210.56031661 97.48828125 212.91796875 C95.8287394 214.38575682 94.28532392 215.90101979 92.75390625 217.5 C90.62890625 219.5625 90.62890625 219.5625 88.62890625 219.5625 C88.62890625 220.2225 88.62890625 220.8825 88.62890625 221.5625 C87.125 223.078125 87.125 223.078125 85.06640625 224.8125 C84.33808594 225.43253906 83.60976563 226.05257812 82.859375 226.69140625 C82.12332031 227.30886719 81.38726563 227.92632812 80.62890625 228.5625 C73.33838859 234.10988117 73.33838859 234.10988117 68.62890625 241.5625 C67.88640625 242.18125 67.88640625 242.18125 67.12890625 242.8125 C64.78748041 245.54416347 64.87034831 248.02014853 64.62890625 251.5625 C65.5019494 255.16383809 65.5019494 255.16383809 66.94140625 258.75 C70.94388043 269.33534002 72.02005431 279.91530115 72.00390625 291.1875 C72.00302002 292.31470459 72.00213379 293.44190918 72.0012207 294.60327148 C71.83787129 306.25912257 69.67934024 316.81124371 65.87890625 327.8125 C64.66193786 331.46340516 64.03973383 333.77496301 64.62890625 337.5625 C69.50542091 347.31552931 79.97786786 353.35182312 88.60961914 359.48681641 C94.42333375 363.63527207 100.01244891 367.99651223 105.54370117 372.51220703 C109.59013593 375.79573931 113.72803256 378.76638892 118.1875 381.4765625 C118.66316406 381.83492187 119.13882812 382.19328125 119.62890625 382.5625 C119.62890625 383.2225 119.62890625 383.8825 119.62890625 384.5625 C120.37140625 384.830625 121.11390625 385.09875 121.87890625 385.375 C124.62890625 386.5625 124.62890625 386.5625 126.50390625 388.25 C129.04371344 389.81870444 130.69002177 389.82785933 133.59765625 389.2734375 C136.07238043 388.40728404 138.04542473 387.16256772 140.25390625 385.75 C151.93027497 378.44126241 164.81494376 376.84366564 178.31640625 379.1875 C188.85892795 382.06093167 197.05308878 387.86831038 204.62890625 395.5625 C205.28890625 396.22378906 205.94890625 396.88507813 206.62890625 397.56640625 C216.42800774 408.02018909 218.69112714 419.65851325 218.61816406 433.61767578 C218.12650593 446.3592837 212.89823517 458.26404967 204.05859375 467.46484375 C196.71824355 473.80209143 188.18650864 479.43436587 178.62890625 481.5625 C177.47068359 481.83320312 177.47068359 481.83320312 176.2890625 482.109375 C162.6836175 484.42689573 149.20323348 481.96524679 137.62890625 474.5625 C136.63890625 474.005625 135.64890625 473.44875 134.62890625 472.875 C132.62890625 471.5625 132.62890625 471.5625 131.62890625 469.5625 C130.63890625 468.9025 129.64890625 468.2425 128.62890625 467.5625 C119.62890625 456.9453125 119.62890625 456.9453125 119.62890625 452.5625 C118.96890625 452.2325 118.30890625 451.9025 117.62890625 451.5625 C113.20087803 440.84201063 112.52122503 428.13290623 115.15625 416.9296875 C115.6680238 414.36658895 115.88098083 412.16727065 115.62890625 409.5625 C113.18394582 407.84538757 113.18394582 407.84538757 110.62890625 406.5625 C110.62890625 405.9025 110.62890625 405.2425 110.62890625 404.5625 C109.48421875 404.253125 109.48421875 404.253125 108.31640625 403.9375 C102.50012135 401.7687158 96.06068629 398.99428004 91.62890625 394.5625 C90.90832031 394.28535156 90.18773437 394.00820313 89.4453125 393.72265625 C85.17484528 391.96353175 81.53229698 389.32371357 77.71289062 386.75195312 C74.68120108 384.74939928 72.14592358 383.38496508 68.62890625 382.5625 C68.17016113 382.09972656 67.71141602 381.63695312 67.23876953 381.16015625 C64.57770337 378.51926802 61.27472515 377.14982451 57.94140625 375.5 C56.91756836 374.9730957 56.91756836 374.9730957 55.87304688 374.43554688 C48.71992201 370.86236174 41.67314502 368.78402528 33.62890625 369.5625 C30.30082386 371.44663915 30.30082386 371.44663915 27.62890625 373.5625 C26.96890625 373.5625 26.30890625 373.5625 25.62890625 373.5625 C25.29890625 374.2225 24.96890625 374.8825 24.62890625 375.5625 C22.8515625 376.6328125 22.8515625 376.6328125 20.69140625 377.6875 C19.62599609 378.21730469 19.62599609 378.21730469 18.5390625 378.7578125 C16.62890625 379.5625 16.62890625 379.5625 14.62890625 379.5625 C14.29890625 380.2225 13.96890625 380.8825 13.62890625 381.5625 C11.98999023 382.30859375 11.98999023 382.30859375 9.875 383 C9.10220703 383.25523437 8.32941406 383.51046875 7.53320312 383.7734375 C6.31213867 384.16402344 6.31213867 384.16402344 5.06640625 384.5625 C4.27943359 384.82289063 3.49246094 385.08328125 2.68164062 385.3515625 C-20.88266219 393.04444289 -44.68975933 391.09802156 -67.68359375 381.9375 C-70.37109375 380.5625 -70.37109375 380.5625 -71.37109375 378.5625 C-73.35646002 377.85344062 -75.36020297 377.19555821 -77.37109375 376.5625 C-78.48484375 376.02625 -79.59859375 375.49 -80.74609375 374.9375 C-86.75022817 372.6600697 -91.10511473 372.72408731 -96.87109375 375.3125 C-103.82740491 379.0884793 -109.9920598 384.0940617 -116.23925781 388.91894531 C-119.76484688 391.63702429 -123.31652852 394.31999734 -126.87109375 397 C-127.5048291 397.483479 -128.13856445 397.96695801 -128.79150391 398.46508789 C-132.65937459 401.38755801 -136.60889982 404.00785005 -140.78710938 406.46899414 C-142.5343229 407.48729764 -142.5343229 407.48729764 -143.37109375 409.5625 C-145.04017857 410.4971875 -146.71024454 411.43019444 -148.38671875 412.3515625 C-152.16077996 414.65463135 -156.36475185 417.54981619 -158.37109375 421.5625 C-159.36109375 421.8925 -160.35109375 422.2225 -161.37109375 422.5625 C-161.57341418 426.79415761 -161.57341418 426.79415761 -160.390625 430.80078125 C-157.02308773 439.92280748 -158.95001332 450.95785578 -162.765625 459.59375 C-168.57273531 470.33195885 -176.79875706 477.71098482 -188.24609375 482 C-201.60174439 485.96736357 -213.54903337 482.88859404 -225.5703125 476.55078125 C-226.16457031 476.22464844 -226.75882812 475.89851563 -227.37109375 475.5625 C-227.37109375 474.9025 -227.37109375 474.2425 -227.37109375 473.5625 C-228.09296875 473.376875 -228.81484375 473.19125 -229.55859375 473 C-236.94576321 469.22433561 -239.75496548 459.94444334 -242.37109375 452.5625 C-244.96365583 442.1922517 -242.46075305 431.20241121 -238.37109375 421.5625 C-237.71109375 421.5625 -237.05109375 421.5625 -236.37109375 421.5625 C-236.25507813 420.97082031 -236.1390625 420.37914062 -236.01953125 419.76953125 C-233.94275692 412.70099211 -227.03702951 408.73780737 -221.15234375 405.04296875 C-210.22991414 399.22892265 -197.0950873 399.31667425 -185.37109375 402.5625 C-183.2578125 403.62109375 -183.2578125 403.62109375 -181.43359375 404.75 C-178.64897406 406.78232963 -178.64897406 406.78232963 -176.18359375 406.4375 C-175.28640625 406.004375 -175.28640625 406.004375 -174.37109375 405.5625 C-173.62859375 405.211875 -172.88609375 404.86125 -172.12109375 404.5 C-171.25484375 404.0359375 -171.25484375 404.0359375 -170.37109375 403.5625 C-170.37109375 402.9025 -170.37109375 402.2425 -170.37109375 401.5625 C-168.796875 400.01171875 -168.796875 400.01171875 -166.68359375 398.25 C-162.28398243 394.49989193 -158.25044548 390.64147662 -154.55859375 386.1875 C-152.47943433 383.73072065 -150.34111612 381.60095272 -147.87890625 379.53125 C-142.88183006 375.20973313 -138.20171741 370.57920647 -133.53295898 365.90966797 C-132.04883183 364.42775263 -130.55683835 362.95406188 -129.06445312 361.48046875 C-128.1075848 360.52653103 -127.1511874 359.57212065 -126.1953125 358.6171875 C-125.34026123 357.76624512 -124.48520996 356.91530273 -123.60424805 356.03857422 C-119.49238537 351.47942792 -116.80477884 346.59829564 -115.93359375 340.5 C-116.46102795 335.75309221 -118.09687864 332.13591811 -120 327.78515625 C-128.17794761 308.56348451 -129.50459172 287.51876293 -123.9921875 267.39453125 C-123.170059 263.6458321 -122.41936078 260.15325367 -124.46484375 256.734375 C-124.92890625 256.26515625 -125.39296875 255.7959375 -125.87109375 255.3125 C-128.37109375 252.5625 -128.37109375 252.5625 -128.37109375 250.5625 C-129.07234375 250.315 -129.77359375 250.0675 -130.49609375 249.8125 C-133.76623923 248.39069762 -136.51221575 246.69003712 -139.37109375 244.5625 C-139.37109375 243.9025 -139.37109375 243.2425 -139.37109375 242.5625 C-140.06203125 242.31757813 -140.75296875 242.07265625 -141.46484375 241.8203125 C-144.84406841 240.3577986 -147.81424016 238.4641267 -150.87109375 236.4375 C-152.11385422 235.62518552 -153.35736148 234.81401256 -154.6015625 234.00390625 C-155.22853027 233.59543457 -155.85549805 233.18696289 -156.50146484 232.76611328 C-159.36712296 230.92128506 -162.27384867 229.14956838 -165.18359375 227.375 C-168.92280692 225.08967287 -172.61409121 222.76456263 -176.24609375 220.3125 C-183.64262021 214.83991533 -183.64262021 214.83991533 -192.37109375 213.5625 C-195.24134069 215.13898605 -195.24134069 215.13898605 -198.18359375 217.25 C-209.25761991 224.47442263 -221.10995313 227.71495627 -234.37109375 226.5625 C-235.59828125 226.47871094 -236.82546875 226.39492188 -238.08984375 226.30859375 C-246.77490179 225.47009729 -254.02076419 223.37552719 -261.37109375 218.5625 C-261.86609375 217.5725 -261.86609375 217.5725 -262.37109375 216.5625 C-263.68642785 215.86098848 -265.02226967 215.19724075 -266.37109375 214.5625 C-267.85609375 213.5725 -267.85609375 213.5725 -269.37109375 212.5625 C-269.37109375 211.9025 -269.37109375 211.2425 -269.37109375 210.5625 C-270.36109375 210.2325 -271.35109375 209.9025 -272.37109375 209.5625 C-272.37109375 208.9025 -272.37109375 208.2425 -272.37109375 207.5625 C-273.03109375 207.5625 -273.69109375 207.5625 -274.37109375 207.5625 C-275.84375 205.91796875 -275.84375 205.91796875 -277.43359375 203.75 C-278.22443359 202.68845703 -278.22443359 202.68845703 -279.03125 201.60546875 C-280.37109375 199.5625 -280.37109375 199.5625 -281.37109375 196.5625 C-282.03109375 196.2325 -282.69109375 195.9025 -283.37109375 195.5625 C-291.05407615 176.47509061 -290.18494119 158.58173435 -283.37109375 139.5625 C-282.71109375 139.5625 -282.05109375 139.5625 -281.37109375 139.5625 C-280.98050781 138.22638672 -280.98050781 138.22638672 -280.58203125 136.86328125 C-276.09206322 124.62449742 -263.86536255 116.53479768 -252.62109375 111.0625 C-243.2778392 106.75022867 -233.32607171 107.3371149 -223.26660156 107.53417969 C-221.78855029 107.55626289 -220.30990473 107.53964362 -218.83203125 107.5078125 C-207.86812694 107.80413424 -196.0538962 115.84165732 -188.54296875 123.2265625 C-176.79694751 135.85987312 -168.43698342 151.348557 -169.0703125 169.1484375 C-169.61729728 173.53852316 -170.60713303 177.82910216 -171.6171875 182.1328125 C-172.3789034 185.59802782 -172.91025596 189.04581553 -173.37109375 192.5625 C-172.43652344 193.02398437 -171.50195312 193.48546875 -170.5390625 193.9609375 C-169.21197149 194.61925149 -167.88517445 195.27815827 -166.55859375 195.9375 C-165.47976929 196.47334717 -165.47976929 196.47334717 -164.37915039 197.02001953 C-160.51797832 198.94956907 -156.68382459 200.91572165 -152.88671875 202.96875 C-144.11350045 207.70853235 -135.26585461 212.07764842 -126.12109375 216.0625 C-124.67464478 216.69454346 -124.67464478 216.69454346 -123.19897461 217.33935547 C-113.83272737 221.41405544 -113.83272737 221.41405544 -103.80859375 222.9375 C-103.10605469 222.96585938 -102.40351563 222.99421875 -101.6796875 223.0234375 C-96.36442005 221.96218275 -92.05546744 217.58007271 -87.87109375 214.3125 C-78.0832686 206.96558927 -68.19928717 201.44498782 -56.52734375 197.66796875 C-49.91188698 195.53045376 -49.91188698 195.53045376 -45.5625 190.39453125 C-44.15350378 186.43346872 -43.64268982 182.42253659 -43.30859375 178.25 C-43.23261963 177.3947876 -43.15664551 176.5395752 -43.07836914 175.65844727 C-42.06976088 163.29396299 -41.60487605 150.88128346 -41.06811523 138.48901367 C-40.99097908 136.72052916 -40.91359198 134.95205558 -40.8359375 133.18359375 C-40.79858994 132.33301392 -40.76124237 131.48243408 -40.72276306 130.6060791 C-40.4682478 125.05373816 -40.0635131 119.52969073 -39.56079102 113.99389648 C-39.29617269 110.60221842 -39.31224779 107.27703179 -39.37109375 103.875 C-39.44082987 97.38954059 -39.17931816 90.96667284 -38.7265625 84.49731445 C-38.40747651 79.83580995 -38.32940687 75.23143091 -38.37109375 70.5625 C-39.12132812 70.23378906 -39.8715625 69.90507812 -40.64453125 69.56640625 C-51.7879038 64.38768526 -60.30199271 57.9576743 -65.37109375 46.5625 C-65.84675781 45.66337891 -65.84675781 45.66337891 -66.33203125 44.74609375 C-70.32202588 36.27193085 -69.3603539 25.69417352 -66.62109375 17 C-62.15358373 5.39688371 -52.87779936 -2.68414719 -41.87109375 -8.1875 C-26.84181991 -13.5550978 -12.41265881 -9.22799685 0 0 Z M-57.7421875 272.31640625 C-63.44071654 280.17409018 -62.95450195 291.31497374 -62.00390625 300.6015625 C-60.29545395 308.5954319 -56.04556448 314.97380138 -49.37109375 319.5625 C-47.97890625 320.614375 -47.97890625 320.614375 -46.55859375 321.6875 C-38.19232034 326.6088373 -30.0231975 327.66263226 -20.37109375 326.5625 C-9.11802611 323.63018616 -0.91879394 318.65280868 5.40234375 308.90625 C9.791995 300.51838137 10.16777099 289.89282994 7.94140625 280.734375 C7.00627112 278.50563628 5.95136375 276.58338036 4.62890625 274.5625 C4.21640625 273.88058594 3.80390625 273.19867188 3.37890625 272.49609375 C-1.58420265 265.06553015 -9.27519279 259.45111072 -17.890625 256.99609375 C-34.60014957 254.07521623 -46.81621675 259.9336394 -57.7421875 272.31640625 Z " fill="#2D54B0" transform="translate(525.37109375,223.4375)"/>
<path d="M0 0 C0.33 0 0.66 0 1 0 C1.10957031 1.16917969 1.21914063 2.33835937 1.33203125 3.54296875 C1.49154721 5.09121194 1.65173914 6.63938558 1.8125 8.1875 C1.88275391 8.95642578 1.95300781 9.72535156 2.02539062 10.51757812 C2.50807748 15.01621963 3.12465495 18.33669982 6 22 C10.30178464 24.61481027 14.6745546 26.24346477 19.41723633 27.90942383 C27.21585426 30.67168959 34.08973915 34.10348394 41.06420898 38.57275391 C46.11732729 41.7472358 51.06931558 44.1934256 57.22265625 43.890625 C67.04468847 40.47063926 75.50331462 33.56300864 83.828125 27.48828125 C84.63644775 26.89901855 85.44477051 26.30975586 86.27758789 25.70263672 C87.86017908 24.54347004 89.43768693 23.37732467 91.00952148 22.20361328 C91.73212158 21.67106934 92.45472168 21.13852539 93.19921875 20.58984375 C93.83690186 20.11409912 94.47458496 19.63835449 95.1315918 19.14819336 C97.08901576 17.94529712 98.75501843 17.43071055 101 17 C101 16.34 101 15.68 101 15 C101.99 14.46375 102.98 13.9275 104 13.375 C108.27664973 10.94369402 112.12524283 8.0192913 116 5 C116.99 5.495 116.99 5.495 118 6 C109.18247202 12.96041164 100.12274208 19.44722744 90.82568359 25.75 C87.45015204 28.06114222 84.13421812 30.45709977 80.8203125 32.85546875 C79 34 79 34 77 34 C76.67 34.99 76.34 35.98 76 37 C73.66666667 38 71.33333333 39 69 40 C68.67 40.99 68.34 41.98 68 43 C66.68 43 65.36 43 64 43 C64 43.66 64 44.32 64 45 C59.28033526 47.35983237 53.10440006 46.57764701 48 46 C45.45400373 44.85573202 43.57030517 43.49242591 41.375 41.77734375 C33.26440464 35.70773702 23.35178101 32.15455627 13.7734375 29.12890625 C8.13140147 27.28748273 4.51926894 25.27396001 1.19921875 20.3046875 C-0.32585728 16.10203499 -0.33373549 12.54956095 -0.1875 8.125 C-0.17396484 7.34125 -0.16042969 6.5575 -0.14648438 5.75 C-0.11141789 3.83303218 -0.05762072 1.91642249 0 0 Z " fill="#D1DAED" transform="translate(513,395)"/>
<path d="M0 0 C1.78589028 1.7130842 2.65918624 3.3014443 3.62890625 5.5625 C2.78714844 4.81613281 1.94539062 4.06976563 1.078125 3.30078125 C-9.76038198 -5.68114429 -21.69907251 -7.57060144 -35.35253906 -6.6328125 C-38.05270822 -6.37154795 -40.70762536 -5.94806902 -43.37109375 -5.4375 C-43.37109375 -4.7775 -43.37109375 -4.1175 -43.37109375 -3.4375 C-44.42296875 -3.045625 -45.47484375 -2.65375 -46.55859375 -2.25 C-50.32630733 -0.62768469 -52.63617872 1.46772772 -55.37109375 4.5625 C-56.21671875 5.47 -57.06234375 6.3775 -57.93359375 7.3125 C-65.36361625 16.35978292 -66.34652422 27.31179634 -65.37109375 38.5625 C-62.5774865 48.95423731 -56.85407479 57.09927635 -48.37109375 63.5625 C-53.31194271 63.5625 -55.99633525 59.91740698 -59.37109375 56.5625 C-66.92891093 48.27264293 -69.07493456 38.2739885 -68.76171875 27.2890625 C-67.57233424 15.94233425 -63.12517066 7.50862841 -54.44921875 0.23046875 C-36.95886686 -13.80784001 -17.8828388 -13.29471652 0 0 Z " fill="#E2E9F4" transform="translate(525.37109375,223.4375)"/>
<path d="M0 0 C0.66 0 1.32 0 2 0 C3.14829977 2.269616 4.29371978 4.54060778 5.4375 6.8125 C5.92573242 7.77639648 5.92573242 7.77639648 6.42382812 8.75976562 C10.81276799 17.49239856 11.5595541 26.90165393 9.12890625 36.40625 C4.39914215 48.44001047 -3.42967134 55.95311423 -14 63 C-16.32387947 63.39387788 -18.65793749 63.73486085 -21 64 C-20.9498877 64.81860001 -20.89977539 65.63720001 -20.84814453 66.48060608 C-20.37269657 74.26050734 -19.90166964 82.04065858 -19.43539429 89.82111454 C-19.19562714 93.81944929 -18.9542542 97.81767256 -18.70898438 101.81567383 C-18.47158745 105.68637183 -18.23870497 109.5573192 -18.00872803 113.42846489 C-17.92099087 114.89264745 -17.8317277 116.35673953 -17.74078369 117.82072639 C-17.13698022 127.56193944 -16.88910821 137.24234786 -17 147 C-19.71876214 144.28123786 -19.28021661 142.77219184 -19.34375 138.96484375 C-19.37218994 137.69648682 -19.40062988 136.42812988 -19.42993164 135.12133789 C-19.44686569 134.1001738 -19.44686569 134.1001738 -19.46414185 133.05838013 C-19.52546071 129.43159138 -19.61895025 125.80570519 -19.71484375 122.1796875 C-19.73445663 121.42649734 -19.75406952 120.67330719 -19.77427673 119.89729309 C-20.00410009 111.77275467 -20.52494818 103.6714516 -21.0625 95.5625 C-21.77586929 84.69457261 -22.2993973 73.89473493 -22 63 C-20.91460937 62.50371094 -19.82921875 62.00742187 -18.7109375 61.49609375 C-5.30140922 55.20281333 0.67565496 49.1197444 6.12109375 35.1171875 C8.79605136 25.6300045 7.53128582 15.58160798 2.91015625 6.96875 C1.95235739 5.305384 0.97759964 3.6518063 0 2 C0 1.34 0 0.68 0 0 Z " fill="#C7D2EA" transform="translate(529,229)"/>
<path d="M0 0 C3.59186819 2.76809215 6.82043717 5.77075651 10 9 C10.66 9.66128906 11.32 10.32257812 12 11.00390625 C21.79910149 21.45768909 24.06222089 33.09601325 23.98925781 47.05517578 C23.44681185 61.11297986 17.22931962 73.44560457 7 83 C5.68367113 84.02227984 4.35500336 85.02956522 3 86 C2.01 85.505 2.01 85.505 1 85 C1.85271484 84.34257813 1.85271484 84.34257813 2.72265625 83.671875 C12.57070195 75.58299606 18.82131318 64.64030541 20.6875 52 C21.9239963 38.91374749 20.49944437 28.01063461 13 17 C12.26523437 15.74123047 12.26523437 15.74123047 11.515625 14.45703125 C5.16640887 4.16410098 -6.50595588 -2.02322773 -18 -5 C-21.10987401 -5.24965578 -24.19455599 -5.23433078 -27.3125 -5.1875 C-28.11623047 -5.18685547 -28.91996094 -5.18621094 -29.74804688 -5.18554688 C-35.22931952 -5.14585946 -40.56176959 -4.68182427 -46 -4 C-35.0531667 -14.9468333 -11.14204091 -6.82195455 0 0 Z " fill="#D7E0F0" transform="translate(720,610)"/>
<path d="M0 0 C0.7565918 1.69311523 0.7565918 1.69311523 1 4 C-0.55932617 6.26196289 -0.55932617 6.26196289 -3.10546875 8.91015625 C-3.586707 9.41539322 -4.06794525 9.92063019 -4.56376648 10.44117737 C-6.35924582 12.310951 -8.17790543 14.15615138 -10 16 C-10.75363831 16.76673035 -11.50727661 17.53346069 -12.28375244 18.32342529 C-18.11559979 24.2484161 -23.98960091 30.13061575 -29.87518311 36.00213623 C-31.80219599 37.92653055 -33.72546684 39.85464388 -35.64878559 41.78272915 C-37.96784834 44.10628843 -40.29073218 46.42602007 -42.61328125 48.74609375 C-43.46650467 49.6013414 -44.31972809 50.45658905 -45.19880676 51.3377533 C-56.9069041 63 -56.9069041 63 -60.5625 63 C-63 62 -63 62 -65.375 60.5625 C-74.16029166 55.33315972 -87.22138537 55.34340329 -96.95703125 57.72265625 C-99.12415724 58.66009954 -101.01839152 59.72100005 -103 61 C-103.67933594 61.350625 -104.35867188 61.70125 -105.05859375 62.0625 C-110.82943136 65.20427926 -114.28209021 69.66712315 -118 75 C-118.33 74.01 -118.66 73.02 -119 72 C-114.02330452 63.45791075 -104.23498166 57.71765128 -95 55 C-85.07204247 53.12680047 -72.93629425 52.69600849 -64.0625 58.1875 C-61.27788031 60.21982963 -61.27788031 60.21982963 -58.8125 59.875 C-58.214375 59.58625 -57.61625 59.2975 -57 59 C-56.2575 58.649375 -55.515 58.29875 -54.75 57.9375 C-54.1725 57.628125 -53.595 57.31875 -53 57 C-53 56.34 -53 55.68 -53 55 C-51.42578125 53.44921875 -51.42578125 53.44921875 -49.3125 51.6875 C-44.91288868 47.93739193 -40.87935173 44.07897662 -37.1875 39.625 C-35.10834058 37.16822065 -32.97002237 35.03845272 -30.5078125 32.96875 C-25.51073631 28.64723313 -20.83062366 24.01670647 -16.16186523 19.34716797 C-14.67773808 17.86525263 -13.1857446 16.39156188 -11.69335938 14.91796875 C-10.73649105 13.96403103 -9.78009365 13.00962065 -8.82421875 12.0546875 C-7.96916748 11.20374512 -7.11411621 10.35280273 -6.2331543 9.47607422 C-3.58869812 6.54395719 -1.75766038 3.51532076 0 0 Z " fill="#EBF0F8" transform="translate(408,570)"/>
<path d="M0 0 C6.52318734 7.92621926 7.864797 20.0181905 7 30 C6.34326031 33.54961757 5.57867005 37.05610151 4.75390625 40.5703125 C3.99219035 44.03552782 3.46083779 47.48331553 3 51 C3.93457031 51.46148437 4.86914062 51.92296875 5.83203125 52.3984375 C14.37894409 56.63715934 22.85572243 60.98723009 31.26293945 65.49755859 C36.41289675 68.23939031 41.63844109 70.69958265 47 73 C47 73.33 47 73.66 47 74 C41.57481965 73.54023895 38.67566118 72.84605463 34 70 C32.37118921 69.1526294 30.73274899 68.32355213 29.0859375 67.51171875 C28.16449951 67.05555176 27.24306152 66.59938477 26.29370117 66.12939453 C25.33052979 65.65356934 24.3673584 65.17774414 23.375 64.6875 C21.39925248 63.70019291 19.42398641 62.71192175 17.44921875 61.72265625 C14.35494524 60.17313725 11.25584489 58.63602657 8.14453125 57.12109375 C7.16871094 56.62738281 6.19289063 56.13367188 5.1875 55.625 C4.37667969 55.22539062 3.56585938 54.82578125 2.73046875 54.4140625 C1 53 1 53 0.18359375 50.6328125 C-0.0049104 47.92958273 0.23213432 45.87430098 0.875 43.25 C1.05804688 42.47140625 1.24109375 41.6928125 1.4296875 40.890625 C2 39 2 39 3 38 C3.09932814 36.44785727 3.13080045 34.89125389 3.1328125 33.3359375 C3.13410156 32.37816406 3.13539063 31.42039062 3.13671875 30.43359375 C3.13285156 29.42425781 3.12898438 28.41492188 3.125 27.375 C3.12886719 26.38886719 3.13273437 25.40273438 3.13671875 24.38671875 C3.12692795 17.05340865 2.7765927 10.84892867 0 4 C0 2.68 0 1.36 0 0 Z " fill="#CBD6EB" transform="translate(349,365)"/>
<path d="M0 0 C1.47805127 0.0220832 2.95669684 0.00546393 4.43457031 -0.02636719 C16.68495167 0.3047242 28.81708424 9.68664873 36.89550781 18.02832031 C37.476875 18.6096875 38.05824219 19.19105469 38.65722656 19.79003906 C39.06585938 20.19867188 39.47449219 20.60730469 39.89550781 21.02832031 C39.56550781 21.68832031 39.23550781 22.34832031 38.89550781 23.02832031 C37.96544922 22.08472656 37.96544922 22.08472656 37.01660156 21.12207031 C31.76539828 16.04667151 26.61824838 11.95197212 20.14550781 8.52832031 C19.53247803 8.20283203 18.91944824 7.87734375 18.2878418 7.54199219 C10.42203234 3.55351553 3.44458907 2.63915739 -5.22949219 2.65332031 C-6.76101929 2.6557373 -6.76101929 2.6557373 -8.32348633 2.65820312 C-16.26094527 2.78680622 -22.77198956 3.83979266 -30.10449219 7.02832031 C-30.83152344 7.30546875 -31.55855469 7.58261719 -32.30761719 7.86816406 C-38.5906555 10.55206035 -43.18203202 15.41761595 -48.10449219 20.02832031 C-50.07963891 21.7291411 -52.08466656 23.38056783 -54.10449219 25.02832031 C-49.02037017 13.58904578 -37.17981558 7.14000803 -26.30761719 2.12207031 C-17.87719329 -0.75661102 -8.79337359 -0.17226199 0 0 Z " fill="#ECF1F8" transform="translate(302.1044921875,330.9716796875)"/>
<path d="M0 0 C1 2 1 2 0.43359375 3.734375 C-3.45373916 11.60050748 -7.61634264 15.96453785 -16 19 C-17.21042969 19.51304687 -18.42085937 20.02609375 -19.66796875 20.5546875 C-24.13227482 22.22391848 -28.20310692 22.50059159 -32.9375 22.4375 C-33.72801758 22.43065186 -34.51853516 22.42380371 -35.33300781 22.41674805 C-44.47996914 22.16476304 -50.34399982 19.14400017 -57 13 C-56.34 12.67 -55.68 12.34 -55 12 C-54.195625 12.598125 -53.39125 13.19625 -52.5625 13.8125 C-44.35055202 19.16646144 -35.65870818 20.10888602 -26 19 C-18.57189225 17.02944303 -12.57559715 14.27421352 -7 9 C-6.34 9 -5.68 9 -5 9 C-4.731875 8.2575 -4.46375 7.515 -4.1875 6.75 C-3.05770579 4.13363446 -1.79106798 2.19812889 0 0 Z " fill="#D4DDEF" transform="translate(531,530)"/>
<path d="M0 0 C5.77375561 1.73299754 10.65565047 4.48217653 15.87890625 7.44140625 C21.09287098 10.04512581 25.70237824 10.12070766 31.48828125 10.09765625 C32.5430793 10.09553383 32.5430793 10.09553383 33.6191864 10.09336853 C35.85033544 10.08780109 38.08138164 10.07525475 40.3125 10.0625 C41.83137875 10.05748079 43.35025909 10.05291862 44.86914062 10.04882812 C48.57946012 10.03784236 52.28972001 10.02060034 56 10 C56 9.34 56 8.68 56 8 C57.26607607 7.46770674 58.53810412 6.94955456 59.8125 6.4375 C60.52019531 6.14746094 61.22789062 5.85742188 61.95703125 5.55859375 C64 5 64 5 67 6 C56.03367063 12.13823303 45.57025007 14.84415599 33 14 C31.18435547 13.87818359 31.18435547 13.87818359 29.33203125 13.75390625 C20.6267056 12.89313501 13.37166118 10.82699522 6 6 C5.67 5.34 5.34 4.68 5 4 C4.34 3.67 3.68 3.34 3 3 C1 2 1 2 0 0 Z " fill="#C7D2E8" transform="translate(258,436)"/>
<path d="M0 0 C0.495 1.485 0.495 1.485 1 3 C-2.52675062 4.94899376 -5.95296863 6.34165802 -9.8125 7.4375 C-17.01472496 9.52463126 -23.39293419 12.17015489 -29.296875 16.8515625 C-31 18 -31 18 -33.35546875 18.87109375 C-36.6058071 20.25860894 -38.86926041 22.15629984 -41.5625 24.4375 C-43.37249688 25.96131152 -45.18480813 27.48238057 -47 29 C-48.00933594 29.87205078 -48.00933594 29.87205078 -49.0390625 30.76171875 C-52.70760992 33.07831144 -56.82135508 32.4991337 -61 32 C-63.54550342 31.21607505 -65.62479237 30.23923876 -68 29 C-64.74706637 27.91568879 -64.13013321 28.12661077 -61 29 C-58.84259394 29.26720853 -58.84259394 29.26720853 -56.625 29.3125 C-55.89539063 29.34988281 -55.16578125 29.38726562 -54.4140625 29.42578125 C-49.02979624 28.47612911 -44.71350113 24.0403183 -40.5 20.75 C-30.71217485 13.40308927 -20.82819342 7.88248782 -9.15625 4.10546875 C-5.94169301 2.97957812 -3.01207206 1.58315233 0 0 Z " fill="#DEE6F3" transform="translate(478,417)"/>
<path d="M0 0 C1.11310547 0.01353516 2.22621094 0.02707031 3.37304688 0.04101562 C6.10337212 0.07617003 8.83267744 0.12537894 11.5625 0.1875 C11.5625 0.8475 11.5625 1.5075 11.5625 2.1875 C13.5115625 2.4659375 13.5115625 2.4659375 15.5 2.75 C22.49499114 4.30566838 28.13467004 8.70975735 32.125 14.625 C32.599375 15.470625 33.07375 16.31625 33.5625 17.1875 C33.2325 17.8475 32.9025 18.5075 32.5625 19.1875 C31.758125 18.15625 30.95375 17.125 30.125 16.0625 C23.13598429 7.97940941 13.58250824 3.0075228 2.984375 1.76953125 C-7.21315234 1.38135377 -17.13529653 3.24541977 -25.125 10 C-25.888125 10.721875 -26.65125 11.44375 -27.4375 12.1875 C-28.0975 12.1875 -28.7575 12.1875 -29.4375 12.1875 C-29.72625 12.826875 -30.015 13.46625 -30.3125 14.125 C-31.4375 16.1875 -31.4375 16.1875 -33.4375 17.1875 C-32.625 14.75 -32.625 14.75 -31.4375 12.1875 C-30.4475 11.8575 -29.4575 11.5275 -28.4375 11.1875 C-28.4375 10.5275 -28.4375 9.8675 -28.4375 9.1875 C-26.71484375 7.78515625 -26.71484375 7.78515625 -24.375 6.25 C-23.24384766 5.49396484 -23.24384766 5.49396484 -22.08984375 4.72265625 C-14.38633833 0.26392631 -8.86572647 -0.20520079 0 0 Z " fill="#E9EEF7" transform="translate(689.4375,327.8125)"/>
<path d="M0 0 C0.33 0 0.66 0 1 0 C1.22134176 2.12368444 1.42670007 4.24904024 1.625 6.375 C1.74101562 7.55835938 1.85703125 8.74171875 1.9765625 9.9609375 C1.98429687 10.96382813 1.99203125 11.96671875 2 13 C1.34 13.66 0.68 14.32 0 15 C-1.33153467 18.62508468 -1.12942186 22.31474355 -1.1328125 26.13671875 C-1.13424759 27.15678764 -1.13424759 27.15678764 -1.13571167 28.19746399 C-1.13639007 29.6287953 -1.13455955 31.06012974 -1.13037109 32.49145508 C-1.12499306 34.69033628 -1.13034022 36.88901554 -1.13671875 39.08789062 C-1.1360584 40.47916712 -1.13477812 41.87044349 -1.1328125 43.26171875 C-1.13168457 44.52975342 -1.13055664 45.79778809 -1.12939453 47.10424805 C-1.33108649 49.89385913 -1.33108649 49.89385913 0 51 C0.07179964 52.51928038 0.08392007 54.04167482 0.0625 55.5625 C0.05347656 56.38878906 0.04445313 57.21507812 0.03515625 58.06640625 C0.02355469 58.70449219 0.01195312 59.34257813 0 60 C-1.65945185 57.01298667 -2.41739626 54.35763733 -3 51 C-3.18820312 50.20464844 -3.37640625 49.40929687 -3.5703125 48.58984375 C-6.97405043 32.31422365 -3.86692098 15.89934021 0 0 Z " fill="#ACBCE0" transform="translate(403,482)"/>
<path d="M0 0 C0.33 0 0.66 0 1 0 C1.37962551 36.82951534 1.37962551 36.82951534 0.1875 48.875 C0.11740723 49.62555664 0.04731445 50.37611328 -0.02490234 51.14941406 C-0.58426005 55.9346578 -1.95047061 59.69879586 -4 64 C-4.66 64 -5.32 64 -6 64 C-5.69473389 62.89362183 -5.69473389 62.89362183 -5.38330078 61.76489258 C-2.98639875 52.38098512 -2.29833765 43.32729453 -1.875 33.6875 C-1.80187485 32.19590953 -1.72765957 30.70437209 -1.65234375 29.21289062 C-1.54105659 26.99976472 -1.43087221 24.7866335 -1.32562256 22.57321167 C-0.96678915 15.04350448 -0.49130439 7.52206167 0 0 Z " fill="#B9C7E4" transform="translate(485,353)"/>
<path d="M0 0 C0.33 0 0.66 0 1 0 C0.11431065 7.59162304 0.11431065 7.59162304 -0.51171875 9.828125 C-3.06854139 21.20087212 -0.60000179 31.60053332 5.45703125 41.34375 C8.47150707 45.60696646 11.85663386 48.84314961 16 52 C11.05915104 52 8.3747585 48.35490698 5 45 C-2.55906986 36.70876892 -4.67630425 26.73220599 -4.40625 15.75 C-3.80093848 10.16250907 -2.15590931 5.16840759 0 0 Z " fill="#F2F5FA" transform="translate(461,235)"/>
<path d="M0 0 C2.25056461 1.77133387 2.94943237 2.77329413 3.58203125 5.609375 C4.74727395 21.48827548 2.62934642 34.92698955 -7.09765625 47.76953125 C-10.1442337 51.29444983 -13.20850017 54.28457994 -17 57 C-17.66 56.67 -18.32 56.34 -19 56 C-18.43152344 55.56171875 -17.86304688 55.1234375 -17.27734375 54.671875 C-7.42929805 46.58299606 -1.17868682 35.64030541 0.6875 23 C1.43699383 15.26032901 0.90074181 7.70455945 0 0 Z " fill="#C7D3E9" transform="translate(740,639)"/>
<path d="M0 0 C1.81358154 0.47505678 3.62584179 0.95516042 5.4375 1.4375 C6.44683594 1.70433594 7.45617187 1.97117187 8.49609375 2.24609375 C11 3 11 3 12 4 C12.26717419 8.20024775 12.18966511 12.41737581 12.1875 16.625 C12.18814453 17.90270264 12.18878906 19.18040527 12.18945312 20.49682617 C12.13799856 35.03608323 11.11526354 49.50898936 10 64 C9.34 63.67 8.68 63.34 8 63 C7.97258088 61.4584364 7.95341752 59.91672526 7.9375 58.375 C7.92589844 57.51648438 7.91429687 56.65796875 7.90234375 55.7734375 C8 53 8 53 8.50390625 50.12109375 C9.06623676 46.58328213 9.05852861 43.26871946 9 39.6875 C8.93171665 33.07642985 9.18268459 26.53085667 9.64453125 19.9362793 C9.96341752 15.27427596 10.04169127 10.66942238 10 6 C6.7 4.35 3.4 2.7 0 1 C0 0.67 0 0.34 0 0 Z " fill="#CFDAED" transform="translate(477,288)"/>
<path d="M0 0 C1.32 0 2.64 0 4 0 C4 0.66 4 1.32 4 2 C4.928125 2.4640625 4.928125 2.4640625 5.875 2.9375 C7.25 3.625 8.625 4.3125 10 5 C9.85795259 6.58367747 9.71119847 8.16693318 9.5625 9.75 C9.48128906 10.63171875 9.40007813 11.5134375 9.31640625 12.421875 C9 15 9 15 8.48046875 16.85546875 C6.18402306 27.10545806 7.47754736 39.65958525 12.5625 48.8125 C13.036875 49.534375 13.51125 50.25625 14 51 C14.71143088 52.98451771 15.38991336 54.98202112 16 57 C12.35996939 54.57331293 12.28839527 53.03697185 11 49 C10.34 48.67 9.68 48.34 9 48 C4.57197178 37.27951063 3.89231878 24.57040623 6.52734375 13.3671875 C7.03911755 10.80408895 7.25207458 8.60477065 7 6 C4.55503957 4.28288757 4.55503957 4.28288757 2 3 C2 2.34 2 1.68 2 1 C1.34 0.67 0.68 0.34 0 0 Z " fill="#DAE2F1" transform="translate(634,627)"/>
<path d="M0 0 C4.48176004 2.12695801 8.30920508 4.968602 12.3125 7.875 C13.107771 8.45000244 13.90304199 9.02500488 14.72241211 9.61743164 C20.59303695 13.8953284 26.28686699 18.35604167 31.91357422 22.94824219 C35.95999324 26.23283883 40.09858796 29.20356174 44.55859375 31.9140625 C45.03425781 32.27242187 45.50992188 32.63078125 46 33 C46 33.66 46 34.32 46 35 C35.61239553 30.07316891 26.79860411 22.53762098 18 15.26953125 C13.23483105 11.34289324 8.31853625 7.62898853 3.37890625 3.92578125 C1 2 1 2 0 0 Z " fill="#D9E2F1" transform="translate(599,573)"/>
<path d="M0 0 C6.60000116 8.01955448 7.67964393 19.93178641 7 30 C6.45059569 33.69295243 5.76494689 37.34601261 5 41 C4.34 41 3.68 41 3 41 C2.67 41.66 2.34 42.32 2 43 C2.24339111 41.91887939 2.24339111 41.91887939 2.49169922 40.81591797 C2.97831297 38.12014321 3.1291879 35.67981151 3.1328125 32.9453125 C3.13410156 32.00042969 3.13539063 31.05554688 3.13671875 30.08203125 C3.13285156 29.10621094 3.12898438 28.13039063 3.125 27.125 C3.12886719 26.15691406 3.13273437 25.18882812 3.13671875 24.19140625 C3.12683914 16.92989295 2.74987144 10.78301622 0 4 C0 2.68 0 1.36 0 0 Z " fill="#91A5D4" transform="translate(349,365)"/>
<path d="M0 0 C0.66 0.33 1.32 0.66 2 1 C-5.79927943 7.68509665 -15.51642767 10.53022464 -25.75 9.9375 C-31.24690227 9.2714127 -36.96077017 8.3918454 -42 6 C-42.66 5.01 -43.32 4.02 -44 3 C-42.9378125 3.28875 -41.875625 3.5775 -40.78125 3.875 C-39.35430151 4.25051276 -37.92721038 4.6254838 -36.5 5 C-35.80390625 5.19078125 -35.1078125 5.3815625 -34.390625 5.578125 C-26.6085401 7.59570257 -20.15257031 7.3388862 -12.3125 5.1875 C-11.05050781 4.85105469 -9.78851562 4.51460938 -8.48828125 4.16796875 C-5.00376552 3.14067103 -5.00376552 3.14067103 -2.16796875 1.30078125 C-1.45253906 0.87152344 -0.73710938 0.44226563 0 0 Z " fill="#C6D1E9" transform="translate(712,400)"/>
<path d="M0 0 C0.33 0 0.66 0 1 0 C1.10957031 1.16917969 1.21914063 2.33835937 1.33203125 3.54296875 C1.49154721 5.09121194 1.65173914 6.63938558 1.8125 8.1875 C1.88275391 8.95642578 1.95300781 9.72535156 2.02539062 10.51757812 C2.50764734 15.01221069 3.11183249 18.35034414 6 22 C7.61567436 23.28097336 7.61567436 23.28097336 9.5 24.0625 C10.54027344 24.54203125 10.54027344 24.54203125 11.6015625 25.03125 C15.24095299 26.50123182 18.9469387 27.76133247 22.6796875 28.97265625 C25 30 25 30 27 33 C6.04476276 27.74127126 6.04476276 27.74127126 2 21 C1.64164063 20.46890625 1.28328125 19.9378125 0.9140625 19.390625 C-0.48940552 15.72001634 -0.20888228 12.14084713 -0.125 8.25 C-0.11597656 7.45722656 -0.10695313 6.66445313 -0.09765625 5.84765625 C-0.07417012 3.89830719 -0.03830137 1.94911425 0 0 Z " fill="#C8D3EA" transform="translate(513,395)"/>
<path d="M0 0 C4.95808389 0.51290523 8.13421392 2.00911149 12.3125 4.6875 C12.87718994 5.04545654 13.44187988 5.40341309 14.02368164 5.7722168 C18.08218836 8.35815267 22.07025339 11.04814667 26.0546875 13.74609375 C28.61724431 15.3978623 31.23389799 16.72333754 34 18 C34 18.66 34 19.32 34 20 C30.592308 19.39148357 28.7284449 18.06700371 26 16 C25.278125 15.731875 24.55625 15.46375 23.8125 15.1875 C19.55827853 13.39127316 15.90371279 10.76143042 12.08398438 8.18945312 C9.06956649 6.19830791 6.5340445 4.74140794 3 4 C1.25 1.9375 1.25 1.9375 0 0 Z " fill="#A0B1DA" transform="translate(591,602)"/>
<path d="M0 0 C7.87487197 2.61256083 14.16020822 7.19455994 20 13 C19.67 13.66 19.34 14.32 19 15 C18.32710937 14.25234375 17.65421875 13.5046875 16.9609375 12.734375 C13.93971194 9.72799055 10.50576249 7.93578887 6.625 6.25 C5.93470703 5.94634521 5.24441406 5.64269043 4.53320312 5.32983398 C-2.58777309 2.41369397 -9.34607182 1.92302084 -17 2 C-11.83781177 -1.44145882 -6.00663973 -0.70191343 0 0 Z " fill="#CED8EC" transform="translate(509,214)"/>
<path d="M0 0 C0.66 0 1.32 0 2 0 C3.14829977 2.269616 4.29371978 4.54060778 5.4375 6.8125 C5.76298828 7.45509766 6.08847656 8.09769531 6.42382812 8.75976562 C9.24431659 14.37166536 10.18185768 18.58901643 10.1875 24.8125 C10.19974609 25.51181641 10.21199219 26.21113281 10.22460938 26.93164062 C10.23699659 31.34561655 9.62789183 34.90131584 8 39 C7.67 39 7.34 39 7 39 C7.01571045 38.410979 7.0314209 37.82195801 7.04760742 37.21508789 C7.110692 34.49765973 7.14921991 31.78038639 7.1875 29.0625 C7.22520508 27.67321289 7.22520508 27.67321289 7.26367188 26.25585938 C7.36330948 16.79028731 4.75450729 10.03347784 0 2 C0 1.34 0 0.68 0 0 Z " fill="#E2E8F4" transform="translate(529,229)"/>
<path d="M0 0 C0.66 0.33 1.32 0.66 2 1 C-1.63815705 4.69641935 -5.30460371 8.36074923 -9 12 C-9.62390625 12.62003906 -10.2478125 13.24007812 -10.890625 13.87890625 C-13.15798968 15.97323521 -14.41756251 17 -17.5625 17 C-20 16 -20 16 -22.375 14.5625 C-25.47791483 12.71552689 -28.51458188 11.88843991 -32 11 C-30.3125 9.84765625 -30.3125 9.84765625 -28 9 C-25.5625 9.93359375 -25.5625 9.93359375 -23 11.4375 C-19.62820917 13.54287326 -19.62820917 13.54287326 -15.828125 13.7265625 C-13.81749577 12.92746627 -11.90695997 12.0215857 -10 11 C-10 10.34 -10 9.68 -10 9 C-8.3203125 7.34375 -8.3203125 7.34375 -6.125 5.5 C-4.00964496 3.71066742 -1.95980876 1.95980876 0 0 Z " fill="#DEE6F3" transform="translate(365,616)"/>
<path d="M0 0 C0.33 0 0.66 0 1 0 C3.97291654 16.22461346 3.2181683 34.30740627 -2 50 C-2.66 50.66 -3.32 51.32 -4 52 C-3.88529863 50.24929483 -3.75780972 48.49942464 -3.625 46.75 C-3.55539062 45.77546875 -3.48578125 44.8009375 -3.4140625 43.796875 C-3 41 -3 41 -2.0234375 39.078125 C0.42580524 34.10485349 0.12097299 28.18670718 0.09765625 22.75390625 C0.09553383 21.76994118 0.09553383 21.76994118 0.09336853 20.76609802 C0.08783031 18.69818298 0.07529002 16.63038158 0.0625 14.5625 C0.05747699 13.14909012 0.0529155 11.73567852 0.04882812 10.32226562 C0.03788126 6.88147432 0.02066038 3.44074828 0 0 Z " fill="#C5D2EA" transform="translate(595,496)"/>
<path d="M0 0 C-1.6029053 0.81498562 -3.20737278 1.62689927 -4.8125 2.4375 C-5.70582031 2.88996094 -6.59914063 3.34242188 -7.51953125 3.80859375 C-11.70410413 5.81850671 -14.81229702 6.11849639 -19.41796875 6.09765625 C-20.67158203 6.09443359 -21.92519531 6.09121094 -23.21679688 6.08789062 C-24.52712891 6.07951172 -25.83746094 6.07113281 -27.1875 6.0625 C-28.52278481 6.05748317 -29.85807141 6.05292059 -31.19335938 6.04882812 C-34.46228473 6.03702695 -37.73111991 6.02056297 -41 6 C-41 5.67 -41 5.34 -41 5 C-26.15 4.505 -26.15 4.505 -11 4 C-11 3.34 -11 2.68 -11 2 C-9.73392393 1.46770674 -8.46189588 0.94955456 -7.1875 0.4375 C-6.47980469 0.14746094 -5.77210938 -0.14257812 -5.04296875 -0.44140625 C-3 -1 -3 -1 0 0 Z " fill="#6B85C4" transform="translate(325,442)"/>
<path d="M0 0 C0.66 0.33 1.32 0.66 2 1 C-4.88428302 6.45634573 -11.86609591 11.7367513 -19.125 16.6875 C-19.76381104 17.13335449 -20.40262207 17.57920898 -21.06079102 18.03857422 C-22.65461889 19.10852969 -24.3234045 20.0650564 -26 21 C-26.99 20.67 -27.98 20.34 -29 20 C-27.42210402 18.84669053 -25.8374518 17.70262073 -24.25 16.5625 C-22.92742188 15.60537109 -22.92742188 15.60537109 -21.578125 14.62890625 C-19.27300875 13.1724919 -17.65650428 12.44068179 -15 12 C-15 11.34 -15 10.68 -15 10 C-14.01 9.46375 -13.02 8.9275 -12 8.375 C-7.72335027 5.94369402 -3.87475717 3.0192913 0 0 Z " fill="#E8EEF6" transform="translate(629,400)"/>
<path d="M0 0 C4.62 0 9.24 0 14 0 C14 0.66 14 1.32 14 2 C15.3303125 1.9071875 15.3303125 1.9071875 16.6875 1.8125 C20.39367909 2.02228372 22.08511695 2.75137594 25 5 C25.33 5.99 25.66 6.98 26 8 C25.360625 7.731875 24.72125 7.46375 24.0625 7.1875 C23.051875 6.795625 22.04125 6.40375 21 6 C20.36835937 5.73574219 19.73671875 5.47148437 19.0859375 5.19921875 C12.68510604 2.74362705 6.79929082 2.6893725 0 3 C0 2.01 0 1.02 0 0 Z " fill="#8DA0CF" transform="translate(493,478)"/>
<path d="M0 0 C5.62805758 1.65089689 10.34060388 3.388968 15 7 C15.33 7.66 15.66 8.32 16 9 C16.7425 9.268125 17.485 9.53625 18.25 9.8125 C21.62134511 11.26830812 23.53214507 13.32061465 26 16 C22.39263367 15.35402975 19.91583357 13.820514 16.875 11.8125 C12.29093439 8.81807004 7.64325746 5.993358 2.8984375 3.26171875 C1 2 1 2 0 0 Z " fill="#B6C4E3" transform="translate(340,437)"/>
<path d="M0 0 C1.16898166 3.63683183 1.02874952 6.93834538 0.87890625 10.734375 C0.83056641 12.02988281 0.78222656 13.32539063 0.73242188 14.66015625 C0.67590496 16.02344263 0.61926274 17.38672383 0.5625 18.75 C0.50924178 20.12888612 0.45650166 21.50779235 0.40429688 22.88671875 C0.27463047 26.25804533 0.13966346 29.62907518 0 33 C-0.33 33 -0.66 33 -1 33 C-3.46683475 22.08900016 -3.57601794 10.72805383 0 0 Z " fill="#A3B4DB" transform="translate(239,373)"/>
<path d="M0 0 C-9.6645697 5.18586667 -19.28361223 6.45338548 -30 4 C-30 3.67 -30 3.34 -30 3 C-29.04480469 2.96261719 -28.08960938 2.92523437 -27.10546875 2.88671875 C-19.78930238 2.51471029 -13.27357109 1.86887634 -6.26953125 -0.4765625 C-3.77995082 -1.05075145 -2.38941959 -0.82393779 0 0 Z " fill="#F0F3F9" transform="translate(344,702)"/>
<path d="M0 0 C0.71994141 0.00128906 1.43988281 0.00257813 2.18164062 0.00390625 C5.94009522 0.06672165 7.74551488 0.24700992 10.9375 2.375 C13.56281524 2.54213569 13.56281524 2.54213569 15.9375 2.375 C16.5975 4.025 17.2575 5.675 17.9375 7.375 C17.380625 7.18164062 16.82375 6.98828125 16.25 6.7890625 C3.31694543 2.12108068 3.31694543 2.12108068 -10.0625 3.375 C-11.0525 3.87 -11.0525 3.87 -12.0625 4.375 C-8.64454797 -0.14062331 -5.30939754 -0.18159956 0 0 Z " fill="#ACBBDF" transform="translate(566.0625,590.625)"/>
<path d="M0 0 C-5.2198057 2.89989205 -10.03390658 3.13781996 -15.9375 3.125 C-17.12214844 3.12757813 -18.30679688 3.13015625 -19.52734375 3.1328125 C-22.77535743 3.0085915 -25.81203717 2.61325697 -29 2 C-29 1.67 -29 1.34 -29 1 C-19.31629705 0.30386731 -9.71614177 -0.14973506 0 0 Z " fill="#CBD4EA" transform="translate(708,703)"/>
<path d="M0 0 C9.57477243 1.92810063 16.6251183 9.07078076 23 16 C22.67 16.66 22.34 17.32 22 18 C21.33355469 17.34773438 20.66710937 16.69546875 19.98046875 16.0234375 C13.7714883 10.13576093 7.79947845 5.71116383 0 2 C0 1.34 0 0.68 0 0 Z " fill="#D6DFF0" transform="translate(319,336)"/>
<path d="M0 0 C3.95626318 3.95626318 4.13142276 9.82811774 4.1875 15.1875 C4.11990015 18.56229242 3.87412683 21.72202438 3 25 C2.67 25 2.34 25 2 25 C1.34 16.75 0.68 8.5 0 0 Z " fill="#B5C3E2" transform="translate(726,353)"/>
<path d="M0 0 C0.98120464 3.05263664 0.98120464 4.94736336 0 8 C-0.66 8 -1.32 8 -2 8 C-2 15.26 -2 22.52 -2 30 C-4.44883326 27.55116674 -4.56418545 26.40124835 -5 23 C-4.96458188 15.50906822 -4.62258739 8.64141022 -1 2 C-0.67 1.34 -0.34 0.68 0 0 Z " fill="#BFCCE7" transform="translate(652,350)"/>
<path d="M0 0 C2.42767783 2.42767783 3.46468438 4.92936876 5 8 C7.95149804 13.05971093 11.46657196 16.40891375 16 20 C11.06230729 20 8.36960546 16.35649415 5 13 C2.03687348 9.71078778 0.100507 7.10557696 -0.3125 2.5625 C-0.209375 1.716875 -0.10625 0.87125 0 0 Z " fill="#ECF1F8" transform="translate(461,267)"/>
<path d="M0 0 C0 0.33 0 0.66 0 1 C-0.81791016 1.22042969 -0.81791016 1.22042969 -1.65234375 1.4453125 C-8.78623914 3.56718908 -15.77063703 6.65595555 -20 13 C-20.66 13 -21.32 13 -22 13 C-20.48538606 9.17043634 -18.22111436 7.30792726 -15 4.8125 C-14.113125 4.11769531 -13.22625 3.42289062 -12.3125 2.70703125 C-8.00730891 -0.47095609 -5.25378912 -0.08473853 0 0 Z " fill="#D0D9EC" transform="translate(492,480)"/>
<path d="M0 0 C0.33 0.99 0.66 1.98 1 3 C-5.52476609 6.60579179 -12.4794842 9.28151663 -20 9 C-17.17228003 7.11485336 -14.87377091 6.15984641 -11.6875 5.0625 C-7.60833392 3.61802077 -3.80340752 2.05589596 0 0 Z " fill="#E6ECF6" transform="translate(478,417)"/>
<path d="M0 0 C0.99 0.33 1.98 0.66 3 1 C-4.46432319 10.05613851 -4.46432319 10.05613851 -9 12 C-9.66 11.67 -10.32 11.34 -11 11 C-7.37 7.37 -3.74 3.74 0 0 Z " fill="#4465B9" transform="translate(400,583)"/>
<path d="M0 0 C0.33 0 0.66 0 1 0 C1.02952761 3.29164717 1.04697292 6.58325938 1.0625 9.875 C1.07087891 10.7928125 1.07925781 11.710625 1.08789062 12.65625 C1.10964173 18.8335647 0.73930108 24.86721835 0 31 C-0.66 30.67 -1.32 30.34 -2 30 C-2.1346906 23.05033907 -1.75715004 16.28143617 -1 9.375 C-0.90460938 8.46621094 -0.80921875 7.55742187 -0.7109375 6.62109375 C-0.47856232 4.41352957 -0.24153511 2.20657739 0 0 Z " fill="#D2DCEE" transform="translate(487,321)"/>
<path d="M0 0 C3.66808852 0.64457353 7.01149032 1.63910805 10.5 2.9375 C11.4178125 3.27652344 12.335625 3.61554687 13.28125 3.96484375 C15.86595043 4.94896101 18.43568508 5.96405394 21 7 C17.55860159 8.18422255 15.49050031 7.80199625 12.0625 6.6875 C10.75345703 6.26597656 10.75345703 6.26597656 9.41796875 5.8359375 C6.90916733 4.96859743 4.43618195 4.05567884 2 3 C2 2.34 2 1.68 2 1 C1.34 0.67 0.68 0.34 0 0 Z " fill="#B4C1E0" transform="translate(452,601)"/>
<path d="M0 0 C0.33 0 0.66 0 1 0 C1 8.58673058 -2.29969278 12.7803026 -8 19 C-8.99 18.67 -9.98 18.34 -11 18 C-10.278125 17.38125 -9.55625 16.7625 -8.8125 16.125 C-4.432032 11.78197189 -1.92745305 5.78235914 0 0 Z " fill="#BECBE6" transform="translate(535,264)"/>
<path d="M0 0 C0 0.33 0 0.66 0 1 C-0.67804688 1.10957031 -1.35609375 1.21914062 -2.0546875 1.33203125 C-7.82811989 2.31559383 -13.27380195 3.58776312 -18.80859375 5.51171875 C-21.24824381 6.05531279 -22.65745132 5.79507916 -25 5 C-16.56020447 0.88536045 -9.33192863 -0.19044752 0 0 Z " fill="#F3F7FB" transform="translate(503,213)"/>
<path d="M0 0 C1.74007609 2.61011413 2.49692511 4.26919228 3.375 7.1875 C4.41201925 10.45892155 5.64499992 13.4046033 7.25 16.4375 C8.11625 18.2009375 8.11625 18.2009375 9 20 C8.67 20.66 8.34 21.32 8 22 C4 16.25 4 16.25 4 14 C3.34 13.67 2.68 13.34 2 13 C0.66649933 8.55499776 -0.29175731 4.6681169 0 0 Z " fill="#C1CEE7" transform="translate(641,662)"/>
<path d="M0 0 C2.67896954 0.96740567 4.68064728 1.69205273 6.75 3.6875 C10.37719337 5.8033628 13.9941463 4.71043987 18 4 C15.75 6.5625 15.75 6.5625 13 9 C9.34565875 8.74876404 7.04177021 6.72611743 4.25 4.5 C3.45078125 3.8709375 2.6515625 3.241875 1.828125 2.59375 C1.22484375 2.0678125 0.6215625 1.541875 0 1 C0 0.67 0 0.34 0 0 Z " fill="#DDE5F2" transform="translate(645,608)"/>
<path d="M0 0 C0.66 0 1.32 0 2 0 C-0.77765288 6.24971897 -5.13066668 10.60272579 -11 14 C-11.66 14 -12.32 14 -13 14 C-13 13.34 -13 12.68 -13 12 C-11.5390625 10.7109375 -11.5390625 10.7109375 -9.625 9.375 C-8.99851562 8.92898438 -8.37203125 8.48296875 -7.7265625 8.0234375 C-6 7 -6 7 -4 7 C-3.71125 6.401875 -3.4225 5.80375 -3.125 5.1875 C-2 3 -2 3 0 0 Z " fill="#D0DAEE" transform="translate(357,687)"/>
<path d="M0 0 C3.24312562 1.25540347 6.4390569 2.60712439 9.625 4 C10.38039063 4.33 11.13578125 4.66 11.9140625 5 C14 6 14 6 17 8 C10.85286176 8.5018072 7.93439667 7.41612077 3 4 C1.0625 1.75 1.0625 1.75 0 0 Z " fill="#E2E9F4" transform="translate(474,542)"/>
<path d="M0 0 C0.99 0.33 1.98 0.66 3 1 C2.50371094 1.25652344 2.00742187 1.51304687 1.49609375 1.77734375 C-4.4959902 5.1542867 -8.09353786 9.39666837 -12 15 C-12.33 14.01 -12.66 13.02 -13 12 C-9.77454952 6.9814876 -5.27326052 2.75647709 0 0 Z " fill="#DFE6F3" transform="translate(302,630)"/>
<path d="M0 0 C0.66 0.33 1.32 0.66 2 1 C0.73973202 4.78080393 -0.93546534 5.77295425 -4.0625 8.1875 C-4.98160156 8.90292969 -5.90070313 9.61835938 -6.84765625 10.35546875 C-7.55792969 10.89816406 -8.26820313 11.44085938 -9 12 C-9 7.8407692 -6.75316432 5.85455565 -4 3 C-1.6875 1.125 -1.6875 1.125 0 0 Z " fill="#4766B6" transform="translate(475,222)"/>
<path d="M0 0 C1.231394 3.69418201 0.64432764 6.2056261 0 10 C1.98 10.99 3.96 11.98 6 13 C6 13.33 6 13.66 6 14 C2.85375007 14.26218749 1.38162983 14.24754367 -1.3125 12.5 C-1.869375 12.005 -2.42625 11.51 -3 11 C-2.44894091 7.0507432 -1.61064629 3.65079826 0 0 Z " fill="#DAE2F1" transform="translate(352,406)"/>
<path d="M0 0 C4.75 0.75 4.75 0.75 7 3 C8.6476038 3.71247732 10.31763529 4.37400383 12 5 C13.66666667 5.66666667 15.33333333 6.33333333 17 7 C17 7.33 17 7.66 17 8 C10.80273597 7.60442996 6.11744914 5.52510982 1 2 C0.67 1.34 0.34 0.68 0 0 Z " fill="#CCD6EB" transform="translate(662,696)"/>
<path d="M0 0 C6.22987798 0.50512524 11.45474233 3.32604123 17 6 C17 6.33 17 6.66 17 7 C9.75218707 6.38577857 5.75213254 4.47388087 0 0 Z " fill="#B9C7E4" transform="translate(379,432)"/>
<path d="M0 0 C0.66 0 1.32 0 2 0 C8.88838269 11.33712984 8.88838269 11.33712984 8 18 C7.73445312 17.46632812 7.46890625 16.93265625 7.1953125 16.3828125 C6.30233846 14.60270086 5.39971549 12.82742353 4.4921875 11.0546875 C3.95851563 10.00539062 3.42484375 8.95609375 2.875 7.875 C2.33617187 6.82054687 1.79734375 5.76609375 1.2421875 4.6796875 C0 2 0 2 0 0 Z " fill="#D0DAED" transform="translate(529,229)"/>
<path d="M0 0 C1 2 1 2 0.43359375 3.734375 C-2.05999647 8.78022815 -4.83369806 12.21245278 -9 16 C-9.66 15.67 -10.32 15.34 -11 15 C-10.278125 14.360625 -9.55625 13.72125 -8.8125 13.0625 C-5.79233726 10.07675507 -3.97155444 6.62917367 -2.015625 2.890625 C-1 1 -1 1 0 0 Z " fill="#98ABD6" transform="translate(531,530)"/>
<path d="M0 0 C-2.20892755 2.20892755 -4.32599822 2.9725568 -7.1796875 4.13671875 C-9.78386145 5.37174545 -11.84576125 7.1068811 -14 9 C-14.66 8.67 -15.32 8.34 -16 8 C-11.77369526 3.26653869 -6.66454099 -0.80782315 0 0 Z " fill="#BFCCE6" transform="translate(461,426)"/>
<path d="M0 0 C5.68502535 1.64566523 10.76681636 4.29032784 16 7 C13.04893565 8.25348607 12.02593537 8.01044806 8.984375 6.78515625 C7.91703125 6.21667969 6.8496875 5.64820313 5.75 5.0625 C4.67234375 4.49660156 3.5946875 3.93070313 2.484375 3.34765625 C1.66453125 2.90292969 0.8446875 2.45820312 0 2 C0 1.34 0 0.68 0 0 Z " fill="#CBD5EA" transform="translate(298,697)"/>
<path d="M0 0 C3.7602985 0.58107632 6.53035032 1.65199496 9.8125 3.5625 C10.60269531 4.01753906 11.39289062 4.47257813 12.20703125 4.94140625 C12.79871094 5.29074219 13.39039063 5.64007812 14 6 C14 6.66 14 7.32 14 8 C10.592308 7.39148357 8.7284449 6.06700371 6 4 C5.113125 3.649375 4.22625 3.29875 3.3125 2.9375 C1 2 1 2 0 0 Z " fill="#D7DFEF" transform="translate(611,614)"/>
<path d="M0 0 C-10.37357631 5.55580866 -10.37357631 5.55580866 -16 6 C-15.34 5.34 -14.68 4.68 -14 4 C-13.01 4 -12.02 4 -11 4 C-11 3.34 -11 2.68 -11 2 C-9.73392393 1.46770674 -8.46189588 0.94955456 -7.1875 0.4375 C-6.47980469 0.14746094 -5.77210938 -0.14257812 -5.04296875 -0.44140625 C-3 -1 -3 -1 0 0 Z " fill="#BBC8E4" transform="translate(325,442)"/>
<path d="M0 0 C0.33 0.66 0.66 1.32 1 2 C-4.96583144 9.66742597 -4.96583144 9.66742597 -10 11 C-6.79239749 7.19364503 -3.59253891 3.45436433 0 0 Z " fill="#3559B5" transform="translate(366,617)"/>
<path d="M0 0 C1.76923828 0.01353516 1.76923828 0.01353516 3.57421875 0.02734375 C4.47785156 0.03894531 5.38148438 0.05054688 6.3125 0.0625 C6.6425 1.0525 6.9725 2.0425 7.3125 3.0625 C6.59964844 2.97871094 5.88679688 2.89492188 5.15234375 2.80859375 C-0.37769573 2.22060839 -5.22778471 1.97055694 -10.6875 3.0625 C-8.63221196 -1.04807609 -4.03316787 -0.03993236 0 0 Z " fill="#C7D1E8" transform="translate(438.6875,594.9375)"/>
<path d="M0 0 C0.33 0 0.66 0 1 0 C0.22095672 10.55808656 0.22095672 10.55808656 -2 15 C-3.14871801 11.55384597 -2.80416945 9.90109891 -2.125 6.375 C-1.94195313 5.39273438 -1.75890625 4.41046875 -1.5703125 3.3984375 C-1 1 -1 1 0 0 Z " fill="#95A9D6" transform="translate(594,533)"/>
<path d="M0 0 C8.78723404 -0.44680851 8.78723404 -0.44680851 13 3 C13.33 3.99 13.66 4.98 14 6 C13.360625 5.731875 12.72125 5.46375 12.0625 5.1875 C8.08797739 3.64635858 4.05115505 2.32390688 0 1 C0 0.67 0 0.34 0 0 Z " fill="#A8B8DC" transform="translate(505,480)"/>
<path d="M0 0 C5.68748885 1.25124755 8.72847508 3.04102568 13 7 C12.01 7.33 11.02 7.66 10 8 C7.51953125 6.6015625 7.51953125 6.6015625 4.8125 4.625 C3.91144531 3.97789062 3.01039063 3.33078125 2.08203125 2.6640625 C1.39496094 2.11492187 0.70789063 1.56578125 0 1 C0 0.67 0 0.34 0 0 Z " fill="#CFD8EC" transform="translate(353,445)"/>
<path d="M0 0 C4.72065967 1.54269924 9.41664092 3.07794619 14 5 C10.72814447 6.07310858 8.57052408 5.89263102 5.25 5.0625 C4.45078125 4.86785156 3.6515625 4.67320312 2.828125 4.47265625 C1.92320312 4.23869141 1.92320312 4.23869141 1 4 C0.67 2.68 0.34 1.36 0 0 Z " fill="#AFBFE0" transform="translate(396,439)"/>
<path d="M0 0 C5.28 1.32 10.56 2.64 16 4 C16 4.33 16 4.66 16 5 C10.21549928 5.34707004 6.03436469 5.27233705 1 2 C0.67 1.34 0.34 0.68 0 0 Z " fill="#BAC6E2" transform="translate(668,403)"/>
<path d="M0 0 C1.81358154 0.47505678 3.62584179 0.95516042 5.4375 1.4375 C6.44683594 1.70433594 7.45617187 1.97117187 8.49609375 2.24609375 C11 3 11 3 12 4 C12.04080783 5.99958364 12.04254356 8.00045254 12 10 C11.60167969 9.39671875 11.20335937 8.7934375 10.79296875 8.171875 C8.80946372 5.76919789 7.06024961 4.68360849 4.3125 3.25 C3.50425781 2.82203125 2.69601562 2.3940625 1.86328125 1.953125 C1.24839844 1.63859375 0.63351562 1.3240625 0 1 C0 0.67 0 0.34 0 0 Z " fill="#EDF1F8" transform="translate(477,288)"/>
<path d="M0 0 C-5.1468192 3.16727335 -9.158256 3.35050464 -15 3 C-15 2.67 -15 2.34 -15 2 C-13.25364835 1.46706165 -11.50272348 0.94909337 -9.75 0.4375 C-8.77546875 0.14746094 -7.8009375 -0.14257812 -6.796875 -0.44140625 C-4.03756068 -0.99249836 -2.6087176 -0.93789609 0 0 Z " fill="#C3CFE8" transform="translate(344,702)"/>
<path d="M0 0 C4.75481646 0.57634139 7.97048212 2.55068521 12 5 C9.44345185 5.95582656 8.39658231 6.17802782 5.859375 5.0390625 C5.16328125 4.57242188 4.4671875 4.10578125 3.75 3.625 C3.04359375 3.16351562 2.3371875 2.70203125 1.609375 2.2265625 C1.07828125 1.82179688 0.5471875 1.41703125 0 1 C0 0.67 0 0.34 0 0 Z " fill="#B7C4E2" transform="translate(601,608)"/>
<path d="M0 0 C4.29 0.33 8.58 0.66 13 1 C11 3 11 3 8.6171875 3.1953125 C7.71226562 3.17210937 6.80734375 3.14890625 5.875 3.125 C4.50988281 3.09792969 4.50988281 3.09792969 3.1171875 3.0703125 C2.41851563 3.04710937 1.71984375 3.02390625 1 3 C0.67 2.01 0.34 1.02 0 0 Z " fill="#EBF1F8" transform="translate(560,438)"/>
<path d="M0 0 C2.64836661 3.12988781 4.0048268 6.0193072 5 10 C4.546875 12.1875 4.546875 12.1875 4 14 C3.32471777 12.42032193 2.66010306 10.83608097 2 9.25 C1.62875 8.36828125 1.2575 7.4865625 0.875 6.578125 C0 4 0 4 0 0 Z " fill="#B0C0E1" transform="translate(349,365)"/>
<path d="M0 0 C3.15295167 3.15295167 5 6.51187917 5 11 C0.07692308 6.81538462 0.07692308 6.81538462 -0.3125 2.6875 C-0.209375 1.800625 -0.10625 0.91375 0 0 Z " fill="#C8D3E9" transform="translate(461,267)"/>
<path d="M0 0 C1 3 1 3 0.22265625 5.04296875 C-0.16019531 5.75066406 -0.54304688 6.45835937 -0.9375 7.1875 C-1.31777344 7.90292969 -1.69804687 8.61835937 -2.08984375 9.35546875 C-2.54037109 10.16951172 -2.54037109 10.16951172 -3 11 C-3.83583327 8.62392051 -4.1842383 7.45550373 -3.22265625 5.078125 C-1.61132812 2.5390625 -1.61132812 2.5390625 0 0 Z " fill="#C4D0E9" transform="translate(363,676)"/>
<path d="M0 0 C1.37478516 0.01740234 1.37478516 0.01740234 2.77734375 0.03515625 C3.69644531 0.04417969 4.61554687 0.05320312 5.5625 0.0625 C6.27277344 0.07410156 6.98304688 0.08570313 7.71484375 0.09765625 C3.96484375 3.09765625 3.96484375 3.09765625 1.71484375 3.09765625 C1.38484375 3.75765625 1.05484375 4.41765625 0.71484375 5.09765625 C0.38484375 4.43765625 0.05484375 3.77765625 -0.28515625 3.09765625 C-1.27515625 2.43765625 -2.26515625 1.77765625 -3.28515625 1.09765625 C-2.28515625 0.09765625 -2.28515625 0.09765625 0 0 Z " fill="#8299D1" transform="translate(538.28515625,599.90234375)"/>
<path d="M0 0 C0 0.66 0 1.32 0 2 C-1.32 2 -2.64 2 -4 2 C-4 2.66 -4 3.32 -4 4 C-5.98 4.33 -7.96 4.66 -10 5 C-9.34 4.67 -8.68 4.34 -8 4 C-7.67 3.01 -7.34 2.02 -7 1 C-2.25 0 -2.25 0 0 0 Z " fill="#8FA3D2" transform="translate(581,436)"/>
<path d="M0 0 C0 0.66 0 1.32 0 2 C0.99 2.33 1.98 2.66 3 3 C0.51193724 4.24403138 -1.23976186 4.06732288 -4 4 C-4.99 4 -5.98 4 -7 4 C-3.375 0 -3.375 0 0 0 Z " fill="#DCE3F1" transform="translate(337,433)"/>
<path d="M0 0 C-2.2551922 2.2551922 -4.0047587 2.97723468 -7 4 C-7.99 4 -8.98 4 -10 4 C-10 3.34 -10 2.68 -10 2 C-6.5980513 -0.09350689 -3.94727588 -0.17942163 0 0 Z " fill="#A5B5DB" transform="translate(538,604)"/>
<path d="M0 0 C2.04795423 1.9626228 2.94976638 3.4277307 3.19921875 6.26953125 C3.18858877 8.51954383 3.12958525 10.75385562 3 13 C0.68570631 8.55956658 0 5.03693007 0 0 Z " fill="#BECBE6" transform="translate(400,529)"/>
<path d="M0 0 C-5.17578125 3.22265625 -5.17578125 3.22265625 -7 4 C-7.99 3.67 -8.98 3.34 -10 3 C-9.34 3 -8.68 3 -8 3 C-8 2.34 -8 1.68 -8 1 C-4.93251126 -0.86240388 -3.40254489 -1.2151946 0 0 Z " fill="#CDD7EB" transform="translate(718,699)"/>
<path d="M0 0 C2.97 0.495 2.97 0.495 6 1 C6.33 1.99 6.66 2.98 7 4 C6.071875 3.835 5.14375 3.67 4.1875 3.5 C1.04378647 2.92251612 1.04378647 2.92251612 -2 3 C-1.34 2.01 -0.68 1.02 0 0 Z " fill="#C6D1E9" transform="translate(661,399)"/>
<path d="M0 0 C1.8871875 0.061875 1.8871875 0.061875 3.8125 0.125 C3.8125 0.455 3.8125 0.785 3.8125 1.125 C-3.61607143 3.55357143 -3.61607143 3.55357143 -7.1875 2.125 C-4.09861478 0.06574319 -3.47814073 -0.1140374 0 0 Z " fill="#A5B5DA" transform="translate(488.1875,479.875)"/>
<path d="M0 0 C0.66 0.33 1.32 0.66 2 1 C1 4 1 4 -1.0625 5.1875 C-1.701875 5.455625 -2.34125 5.72375 -3 6 C-3.33 5.01 -3.66 4.02 -4 3 C-2.68 2.01 -1.36 1.02 0 0 Z " fill="#3C5FB8" transform="translate(606,418)"/>
<path d="" fill="#FFFFFF" transform="translate(0,0)"/>
<path d="" fill="#FFFFFF" transform="translate(0,0)"/>
<path d="" fill="#FFFFFF" transform="translate(0,0)"/>
<path d="" fill="#FFFFFF" transform="translate(0,0)"/>
<path d="" fill="#FFFFFF" transform="translate(0,0)"/>
</svg>
